<!-- Generated by IcoMoon.io -->
<svg version="1.1" xmlns="http://www.w3.org/2000/svg" width="27" height="32" viewBox="0 0 27 32">
<path fill="#000" d="M27.6 9.473c0-0.018 0.001-0.040 0.001-0.062 0-0.494-0.127-0.958-0.351-1.361l0.007 0.014c-0.248-0.418-0.593-0.755-1.006-0.986l-0.014-0.007q-5.624-3.247-11.252-6.485c-1.010-0.584-1.989-0.563-2.993 0.030-1.492 0.877-8.964 5.163-11.191 6.454-0.917 0.531-1.363 1.344-1.363 2.401v13.056c-0 0.017-0.001 0.036-0.001 0.055 0 0.485 0.122 0.942 0.338 1.34l-0.007-0.015c0.248 0.431 0.6 0.778 1.023 1.014l0.014 0.007c2.227 1.295 9.7 5.576 11.192 6.457 1.004 0.593 1.983 0.614 2.995 0.030q5.623-3.248 11.252-6.488c0.436-0.243 0.788-0.589 1.029-1.008l0.007-0.013c0.208-0.384 0.331-0.84 0.331-1.325 0-0.020-0-0.039-0.001-0.058l0 0.003v-13.053z"></path>
<path fill="#000" d="M27.603 22.528c0 0.017 0.001 0.037 0.001 0.057 0 0.485-0.122 0.94-0.338 1.339l0.007-0.015c-0.062 0.111-0.124 0.206-0.192 0.296l0.004-0.006-13.565-8.199 12.718-8.928c0.426 0.238 0.77 0.575 1.011 0.981l0.007 0.012c0.217 0.388 0.345 0.852 0.345 1.345 0 0.022-0 0.044-0.001 0.066l0-0.003c0.003 4.352 0.003 13.055 0.003 13.055z"></path>
<path fill="#000" d="M27.255 8.065l-27.49 15.843c-0.207-0.382-0.328-0.837-0.328-1.32 0-0.021 0-0.042 0.001-0.063l-0 0.003v-13.057c0-1.057 0.447-1.87 1.363-2.401 2.228-1.291 9.7-5.577 11.193-6.457 1.001-0.593 1.982-0.614 2.992-0.030q5.623 3.248 11.252 6.488c0.426 0.238 0.77 0.575 1.011 0.981l0.007 0.012z"></path>
<path fill="#fff" d="M14.064 21.274c-0.002 0-0.005 0-0.007 0-1.939 0-3.628-1.067-4.513-2.646l-0.013-0.026q-0.069-0.122-0.13-0.249c-0.326-0.659-0.517-1.434-0.517-2.254 0-2.857 2.316-5.173 5.173-5.173 1.606 0 3.040 0.731 3.989 1.879l0.007 0.009c0.069 0.083 0.13 0.17 0.198 0.259 0.031 0.043 0.062 0.085 0.091 0.13l4.542-2.616q-0.166-0.267-0.347-0.518c-0.063-0.089-0.13-0.175-0.192-0.259-1.911-2.465-4.872-4.036-8.201-4.036-5.716 0-10.349 4.633-10.349 10.349 0 1.751 0.435 3.4 1.202 4.846l-0.027-0.056c0.044 0.083 0.089 0.165 0.13 0.246 1.813 3.156 5.165 5.247 9.004 5.247 3.647 0 6.854-1.887 8.698-4.737l0.025-0.041-4.441-2.685c-0.937 1.413-2.521 2.333-4.319 2.333-0.001 0-0.002 0-0.003 0h0z"></path>
</svg>
