<!-- Generated by IcoMoon.io -->
<svg version="1.1" xmlns="http://www.w3.org/2000/svg" width="28" height="32" viewBox="0 0 28 32">
<path fill="#404040" d="M28.395 9.413c-0-0.537-0.115-1.011-0.347-1.418-0.228-0.4-0.569-0.736-1.027-1.001-3.781-2.18-7.565-4.353-11.344-6.535-1.019-0.588-2.007-0.567-3.018 0.030-1.505 0.887-9.039 5.204-11.284 6.504-0.925 0.535-1.374 1.354-1.375 2.419-0.001 4.384 0 8.768-0.001 13.152 0 0.525 0.11 0.99 0.332 1.391 0.228 0.412 0.574 0.757 1.043 1.028 2.245 1.3 9.78 5.616 11.284 6.504 1.012 0.597 2 0.618 3.019 0.030 3.779-2.182 7.564-4.355 11.345-6.535 0.469-0.271 0.815-0.616 1.043-1.028 0.222-0.401 0.332-0.866 0.332-1.391 0 0 0-8.765-0.001-13.149z"></path>
<path fill="#000" d="M14.241 15.945l-13.91 8.009c0.228 0.412 0.574 0.757 1.043 1.028 2.245 1.3 9.78 5.616 11.284 6.504 1.012 0.597 2 0.618 3.019 0.030 3.779-2.182 7.564-4.355 11.345-6.535 0.469-0.271 0.815-0.616 1.043-1.028l-13.824-8.008z"></path>
<path fill="#000" d="M10.121 18.318c0.809 1.413 2.331 2.366 4.077 2.366 1.756 0 3.287-0.965 4.092-2.393l-4.049-2.345-4.12 2.372z"></path>
<path fill="#000" d="M28.395 9.413c-0-0.537-0.115-1.011-0.347-1.418l-13.807 7.95 13.824 8.008c0.222-0.401 0.332-0.866 0.332-1.391 0 0 0-8.765-0.001-13.149z"></path>
<path fill="#fff" d="M27.635 16.518h-1.080v1.080h-1.080v-1.080h-1.080v-1.080h1.080v-1.080h1.080v1.080h1.080v1.080zM23.693 16.518h-1.080v1.080h-1.080v-1.080h-1.080v-1.080h1.080v-1.080h1.080v1.080h1.080v1.080z"></path>
<path fill="#fff" d="M18.29 18.291c-0.805 1.428-2.336 2.393-4.092 2.393-1.746 0-3.267-0.953-4.077-2.366-0.389-0.668-0.619-1.469-0.619-2.325 0-0.002 0-0.003 0-0.005v0c0-2.593 2.103-4.696 4.696-4.696 1.734 0 3.248 0.941 4.061 2.34l4.105-2.364c-1.631-2.816-4.677-4.711-8.166-4.711-5.208 0-9.431 4.222-9.431 9.43 0 1.709 0.455 3.311 1.249 4.693 1.627 2.831 4.682 4.737 8.182 4.737 3.506 0 6.565-1.914 8.19-4.753l-4.098-2.375z"></path>
</svg>
