<!-- Generated by IcoMoon.io -->
<svg version="1.1" xmlns="http://www.w3.org/2000/svg" width="32" height="32" viewBox="0 0 32 32">
<path d="M15.928 0.008c-8.137 0-7.628 3.529-7.628 3.529l0.009 3.656h7.765v1.097h-10.849s-5.207-0.591-5.207 7.619c0 8.21 4.544 7.919 4.544 7.919h2.712v-3.81s-0.146-4.544 4.472-4.544h7.701s4.327 0.070 4.327-4.182v-7.030s0.657-4.254-7.846-4.254zM11.647 2.466c0 0 0.001 0 0.001 0 0.771 0 1.396 0.625 1.396 1.396 0 0 0 0.001 0 0.001v-0c0 0 0 0.001 0 0.001 0 0.771-0.625 1.396-1.396 1.396-0 0-0.001 0-0.001 0h0c-0 0-0.001 0-0.001 0-0.771 0-1.396-0.625-1.396-1.396 0-0 0-0.001 0-0.001v0c0-0 0-0.001 0-0.001 0-0.771 0.625-1.396 1.396-1.396 0 0 0.001 0 0.001 0h-0z"></path>
<path d="M16.159 31.892c8.137 0 7.628-3.529 7.628-3.529l-0.009-3.655h-7.765v-1.098h10.849s5.207 0.59 5.207-7.619c0-8.21-4.544-7.919-4.544-7.919h-2.712v3.81s0.146 4.544-4.472 4.544h-7.701s-4.327-0.070-4.327 4.182v7.030s-0.657 4.254 7.846 4.254zM20.441 29.434c-0 0-0.001 0-0.001 0-0.771 0-1.396-0.625-1.396-1.396 0-0 0-0.001 0-0.001v0c0-0 0-0.001 0-0.001 0-0.771 0.625-1.396 1.396-1.396 0 0 0.001 0 0.001 0h-0c0 0 0.001 0 0.001 0 0.771 0 1.396 0.625 1.396 1.396 0 0 0 0.001 0 0.001v-0c0 0 0 0.001 0 0.001 0 0.771-0.625 1.396-1.396 1.396-0 0-0.001 0-0.001 0h0z"></path>
</svg>
